<?xml version="1.0" encoding="utf-8"?>
<!-- Generator: Adobe Illustrator 25.2.3, SVG Export Plug-In . SVG Version: 6.00 Build 0)  -->
<svg version="1.1" id="Layer_1" xmlns="http://www.w3.org/2000/svg" xmlns:xlink="http://www.w3.org/1999/xlink" x="0px" y="0px"
	 viewBox="0 0 400 400" style="enable-background:new 0 0 400 400;" xml:space="preserve">
<style type="text/css">
	.st0{display:none;}
	.st1{display:inline;fill:#DDDED9;}
	.st2{display:inline;}
	.st3{fill:#3D99AF;}
	.st4{fill:#F9FC77;}
	.st5{fill:#FFFFFF;}
</style>
<g class="st0">
	<path class="st1" d="M363.94,177.65c0.33-2.85,0.55-5.74,0.55-8.69c0-41.14-33.35-74.49-74.49-74.49c-1.81,0-3.58,0.14-5.36,0.27
		c-10.38-40.85-47.3-71.11-91.38-71.11c-52.13,0-94.39,42.26-94.39,94.39c0,2.2,0.18,4.36,0.33,6.52c-1.87-0.18-3.76-0.29-5.68-0.29
		c-30.75,0-55.95,23.6-58.56,53.68C14.84,183.74,0,202.33,0,224.26c0,26.53,21.71,48.24,48.24,48.24h303.53
		c26.53,0,48.24-21.71,48.24-48.24C400,201.94,384.62,183.09,363.94,177.65z"/>
	<g class="st2">
		<path class="st3" d="M104.19,301.12c-4.7-2.91-36.32,11.92-48.96,24.56c-6.76,6.76-6.75,17.75,0,24.51
			c6.76,6.76,17.75,6.76,24.5,0C92.37,337.55,107.22,305.94,104.19,301.12z"/>
	</g>
	<g class="st2">
		<path class="st3" d="M312.16,301.12c-4.7-2.91-36.32,11.92-48.96,24.56c-6.76,6.76-6.75,17.75,0,24.51
			c6.76,6.76,17.75,6.76,24.5,0C300.34,337.55,315.18,305.94,312.16,301.12z"/>
	</g>
	<g class="st2">
		<path class="st3" d="M209.93,301.12c-4.7-2.91-36.32,11.92-48.96,24.56c-6.76,6.76-6.75,17.75,0,24.51
			c6.76,6.76,17.75,6.76,24.5,0C198.11,337.55,212.96,305.94,209.93,301.12z"/>
	</g>
</g>
<g class="st0">
	<g class="st2">
		<path class="st4" d="M201.04,350.54c-82.85,0-150.26-67.41-150.26-150.26c0-82.85,67.41-150.26,150.26-150.26
			c82.85,0,150.26,67.41,150.26,150.26C351.3,283.14,283.89,350.54,201.04,350.54z"/>
	</g>
	<g class="st2">
		<path class="st4" d="M202.33,64.63c-4.28,0-7.75-3.47-7.75-7.75V9.07c0-4.28,3.47-7.75,7.75-7.75c4.28,0,7.75,3.47,7.75,7.75
			v47.81C210.08,61.16,206.61,64.63,202.33,64.63z"/>
	</g>
	<g class="st2">
		<path class="st4" d="M303.36,107.55c-1.98,0-3.97-0.76-5.48-2.27c-3.03-3.03-3.03-7.93,0-10.96l33.8-33.8
			c3.03-3.03,7.93-3.03,10.96,0c3.03,3.03,3.03,7.93,0,10.96l-33.8,33.8C307.32,106.79,305.34,107.55,303.36,107.55z"/>
	</g>
	<g class="st2">
		<path class="st4" d="M392.25,209.33h-47.8c-4.28,0-7.75-3.47-7.75-7.75c0-4.29,3.47-7.75,7.75-7.75h47.8
			c4.28,0,7.75,3.47,7.75,7.75C400,205.87,396.53,209.33,392.25,209.33z"/>
	</g>
	<g class="st2">
		<path class="st4" d="M335.33,344.15c-1.98,0-3.97-0.76-5.48-2.27l-33.8-33.8c-3.03-3.03-3.03-7.93,0-10.96
			c3.03-3.03,7.93-3.03,10.96,0l33.8,33.8c3.03,3.03,3.03,7.93,0,10.96C339.3,343.4,337.31,344.15,335.33,344.15z"/>
	</g>
	<g class="st2">
		<path class="st4" d="M199.75,399.25c-4.28,0-7.75-3.47-7.75-7.75v-47.81c0-4.28,3.47-7.75,7.75-7.75c4.28,0,7.75,3.47,7.75,7.75
			v47.81C207.5,395.78,204.03,399.25,199.75,399.25z"/>
	</g>
	<g class="st2">
		<path class="st4" d="M64.92,342.33c-1.98,0-3.97-0.76-5.48-2.27c-3.03-3.03-3.03-7.93,0-10.96l33.8-33.8
			c3.03-3.03,7.93-3.03,10.96,0c3.03,3.03,3.03,7.93,0,10.96l-33.8,33.8C68.89,341.57,66.9,342.33,64.92,342.33z"/>
	</g>
	<g class="st2">
		<path class="st4" d="M57.63,206.74H9.83c-4.28,0-7.75-3.47-7.75-7.75c0-4.28,3.47-7.75,7.75-7.75h47.81
			c4.28,0,7.75,3.47,7.75,7.75C65.39,203.28,61.91,206.74,57.63,206.74z"/>
	</g>
	<g class="st2">
		<path class="st4" d="M100.55,105.72c-1.98,0-3.97-0.76-5.48-2.27l-33.8-33.8c-3.03-3.03-3.03-7.93,0-10.96s7.93-3.03,10.96,0
			l33.8,33.8c3.03,3.03,3.03,7.93,0,10.96C104.52,104.96,102.53,105.72,100.55,105.72z"/>
	</g>
	<g class="st2">
		<path class="st4" d="M144.85,76.81c-3.88,1.81-8.49,0.14-10.3-3.75l-20.21-43.32c-1.81-3.88-0.13-8.49,3.75-10.3
			c3.88-1.81,8.49-0.14,10.3,3.75l20.21,43.32C150.41,70.39,148.73,75,144.85,76.81z"/>
	</g>
	<g class="st2">
		<path class="st4" d="M254.55,72.98c-1.8,0.84-3.91,0.99-5.93,0.26c-4.02-1.46-6.1-5.91-4.64-9.93l16.34-44.92
			c1.46-4.02,5.91-6.1,9.93-4.64c4.02,1.46,6.1,5.91,4.64,9.93L258.55,68.6C257.82,70.62,256.34,72.14,254.55,72.98z"/>
	</g>
	<g class="st2">
		<path class="st4" d="M378.14,127.63l-43.32,20.21c-3.88,1.81-8.49,0.14-10.3-3.75c-1.81-3.88-0.13-8.49,3.75-10.3l43.32-20.21
			c3.88-1.81,8.49-0.14,10.3,3.75C383.7,121.21,382.02,125.82,378.14,127.63z"/>
	</g>
	<g class="st2">
		<path class="st4" d="M383.57,273.88c-1.8,0.84-3.91,0.99-5.93,0.26l-44.92-16.34c-4.02-1.46-6.1-5.91-4.64-9.93
			c1.46-4.02,5.91-6.1,9.93-4.64l44.92,16.34c4.02,1.46,6.1,5.91,4.64,9.93C386.84,271.52,385.36,273.04,383.57,273.88z"/>
	</g>
	<g class="st2">
		<path class="st4" d="M284,381.14c-3.88,1.81-8.49,0.14-10.3-3.75l-20.21-43.32c-1.81-3.88-0.13-8.49,3.75-10.3
			c3.88-1.81,8.49-0.14,10.3,3.75l20.21,43.32C289.55,374.72,287.87,379.32,284,381.14z"/>
	</g>
	<g class="st2">
		<path class="st4" d="M137.75,386.56c-1.8,0.84-3.92,0.99-5.93,0.26c-4.02-1.46-6.1-5.91-4.64-9.93l16.34-44.92
			c1.46-4.02,5.91-6.1,9.93-4.64c4.02,1.46,6.1,5.91,4.63,9.93l-16.34,44.92C141.02,384.2,139.55,385.72,137.75,386.56z"/>
	</g>
	<g class="st2">
		<path class="st4" d="M73.81,266.77l-43.32,20.21c-3.88,1.81-8.49,0.14-10.3-3.75c-1.81-3.88-0.13-8.49,3.75-10.3l43.32-20.21
			c3.88-1.81,8.49-0.14,10.3,3.75C79.37,260.35,77.69,264.96,73.81,266.77z"/>
	</g>
	<g class="st2">
		<path class="st4" d="M69.99,157.08c-1.8,0.84-3.92,0.99-5.93,0.26L19.14,141c-4.02-1.46-6.1-5.91-4.64-9.93
			c1.46-4.02,5.91-6.1,9.93-4.64l44.92,16.34c4.02,1.46,6.1,5.91,4.63,9.93C73.26,154.72,71.79,156.24,69.99,157.08z"/>
	</g>
</g>
<path class="st5" d="M347.99,237.01c0.32-2.73,0.52-5.49,0.52-8.31c0-39.34-31.89-71.23-71.22-71.23c-1.73,0-3.42,0.14-5.12,0.26
	c-9.93-39.06-45.22-67.99-87.37-67.99c-49.85,0-90.25,40.41-90.25,90.25c0,2.11,0.17,4.17,0.32,6.24c-1.79-0.17-3.59-0.27-5.43-0.27
	c-29.4,0-53.5,22.57-56,51.32C14.19,242.84,0,260.61,0,281.58c0,25.37,20.75,46.12,46.12,46.12h290.22
	c25.37,0,46.12-20.75,46.12-46.12C382.47,260.24,367.76,242.21,347.99,237.01z"/>
<g>
	<g>
		<path class="st4" d="M334.27,145.28c-27.37,0-49.64-22.27-49.64-49.64c0-27.37,22.27-49.64,49.64-49.64
			c27.37,0,49.64,22.27,49.64,49.64C383.91,123.01,361.64,145.28,334.27,145.28z"/>
	</g>
	<g>
		<path class="st4" d="M334.7,50.83c-1.41,0-2.56-1.15-2.56-2.56V32.48c0-1.42,1.15-2.56,2.56-2.56c1.41,0,2.56,1.15,2.56,2.56
			v15.79C337.26,49.68,336.11,50.83,334.7,50.83z"/>
	</g>
	<g>
		<path class="st4" d="M368.07,65.01c-0.65,0-1.31-0.25-1.81-0.75c-1-1-1-2.62,0-3.62l11.17-11.17c1-1,2.62-1,3.62,0
			c1,1,1,2.62,0,3.62l-11.17,11.17C369.38,64.76,368.73,65.01,368.07,65.01z"/>
	</g>
	<g>
		<path class="st4" d="M397.44,98.63h-15.79c-1.41,0-2.56-1.15-2.56-2.56s1.15-2.56,2.56-2.56h15.79c1.41,0,2.56,1.15,2.56,2.56
			S398.85,98.63,397.44,98.63z"/>
	</g>
	<g>
		<path class="st4" d="M378.64,143.17c-0.65,0-1.31-0.25-1.81-0.75l-11.17-11.17c-1-1-1-2.62,0-3.62c1-1,2.62-1,3.62,0l11.17,11.17
			c1,1,1,2.62,0,3.62C379.95,142.92,379.29,143.17,378.64,143.17z"/>
	</g>
	<g>
		<path class="st4" d="M333.85,161.37c-1.41,0-2.56-1.15-2.56-2.56v-15.79c0-1.42,1.15-2.56,2.56-2.56c1.41,0,2.56,1.15,2.56,2.56
			v15.79C336.41,160.23,335.26,161.37,333.85,161.37z"/>
	</g>
	<g>
		<path class="st4" d="M289.31,142.57c-0.65,0-1.31-0.25-1.81-0.75c-1-1-1-2.62,0-3.62l11.17-11.17c1-1,2.62-1,3.62,0
			c1,1,1,2.62,0,3.62l-11.17,11.17C290.62,142.32,289.96,142.57,289.31,142.57z"/>
	</g>
	<g>
		<path class="st4" d="M286.9,97.78h-15.79c-1.41,0-2.56-1.15-2.56-2.56s1.15-2.56,2.56-2.56h15.79c1.41,0,2.56,1.15,2.56,2.56
			S288.31,97.78,286.9,97.78z"/>
	</g>
	<g>
		<path class="st4" d="M301.08,64.4c-0.65,0-1.31-0.25-1.81-0.75L288.1,52.49c-1-1-1-2.62,0-3.62c1-1,2.62-1,3.62,0l11.17,11.17
			c1,1,1,2.62,0,3.62C302.39,64.15,301.73,64.4,301.08,64.4z"/>
	</g>
	<g>
		<path class="st4" d="M315.71,54.85c-1.28,0.6-2.8,0.04-3.4-1.24l-6.68-14.31c-0.6-1.28-0.04-2.81,1.24-3.4
			c1.28-0.6,2.81-0.05,3.4,1.24l6.68,14.31C317.55,52.73,316.99,54.25,315.71,54.85z"/>
	</g>
	<g>
		<path class="st4" d="M351.95,53.59c-0.59,0.28-1.29,0.33-1.96,0.09c-1.33-0.48-2.01-1.95-1.53-3.28l5.4-14.84
			c0.48-1.33,1.95-2.02,3.28-1.53c1.33,0.48,2.01,1.95,1.53,3.28l-5.4,14.84C353.03,52.81,352.54,53.31,351.95,53.59z"/>
	</g>
	<g>
		<path class="st4" d="M392.78,71.64l-14.31,6.68c-1.28,0.6-2.81,0.05-3.4-1.24c-0.6-1.28-0.04-2.81,1.24-3.4L390.61,67
			c1.28-0.6,2.81-0.05,3.4,1.24C394.61,69.52,394.06,71.05,392.78,71.64z"/>
	</g>
	<g>
		<path class="st4" d="M394.57,119.95c-0.59,0.28-1.29,0.33-1.96,0.09l-14.84-5.4c-1.33-0.48-2.02-1.95-1.53-3.28
			c0.48-1.33,1.95-2.02,3.28-1.53l14.84,5.4c1.33,0.48,2.02,1.95,1.53,3.28C395.65,119.17,395.16,119.68,394.57,119.95z"/>
	</g>
	<g>
		<path class="st4" d="M361.68,155.39c-1.28,0.6-2.8,0.05-3.4-1.24l-6.68-14.31c-0.6-1.28-0.04-2.81,1.24-3.4
			c1.28-0.6,2.81-0.05,3.4,1.24l6.68,14.31C363.51,153.27,362.96,154.79,361.68,155.39z"/>
	</g>
	<g>
		<path class="st4" d="M313.36,157.18c-0.59,0.28-1.29,0.33-1.96,0.09c-1.33-0.48-2.01-1.95-1.53-3.28l5.4-14.84
			c0.48-1.33,1.95-2.01,3.28-1.53c1.33,0.48,2.02,1.95,1.53,3.28l-5.4,14.84C314.45,156.4,313.96,156.9,313.36,157.18z"/>
	</g>
	<g>
		<path class="st4" d="M292.24,117.61l-14.31,6.68c-1.28,0.6-2.8,0.04-3.4-1.24c-0.6-1.28-0.04-2.81,1.24-3.4l14.31-6.68
			c1.28-0.6,2.8-0.04,3.4,1.24C294.08,115.49,293.53,117.01,292.24,117.61z"/>
	</g>
	<g>
		<path class="st4" d="M290.98,81.37c-0.59,0.28-1.29,0.33-1.96,0.09l-14.84-5.4c-1.33-0.48-2.01-1.95-1.53-3.28
			c0.48-1.33,1.95-2.01,3.28-1.53l14.84,5.4c1.33,0.48,2.01,1.95,1.53,3.28C292.06,80.59,291.57,81.09,290.98,81.37z"/>
	</g>
</g>
</svg>
