<?xml version="1.0" encoding="utf-8"?>
<!-- Generator: Adobe Illustrator 25.2.3, SVG Export Plug-In . SVG Version: 6.00 Build 0)  -->
<svg version="1.1" id="Layer_1" xmlns="http://www.w3.org/2000/svg" xmlns:xlink="http://www.w3.org/1999/xlink" x="0px" y="0px"
	 viewBox="0 0 400 400" style="enable-background:new 0 0 400 400;" xml:space="preserve">
<style type="text/css">
	.st0{fill:#DDDED9;}
	.st1{fill:#3D99AF;}
</style>
<g>
	<path class="st0" d="M363.94,177.65c0.33-2.85,0.55-5.74,0.55-8.69c0-41.14-33.35-74.49-74.49-74.49c-1.81,0-3.58,0.14-5.36,0.27
		c-10.38-40.85-47.3-71.11-91.38-71.11c-52.13,0-94.39,42.26-94.39,94.39c0,2.2,0.18,4.36,0.33,6.52c-1.87-0.18-3.76-0.29-5.68-0.29
		c-30.75,0-55.95,23.6-58.56,53.68C14.84,183.74,0,202.33,0,224.26c0,26.53,21.71,48.24,48.24,48.24h303.53
		c26.53,0,48.24-21.71,48.24-48.24C400,201.94,384.62,183.09,363.94,177.65z"/>
	<g>
		<path class="st1" d="M104.19,301.12c-4.7-2.91-36.32,11.92-48.96,24.56c-6.76,6.76-6.75,17.75,0,24.51
			c6.76,6.76,17.75,6.76,24.5,0C92.37,337.55,107.22,305.94,104.19,301.12z"/>
	</g>
	<g>
		<path class="st1" d="M312.16,301.12c-4.7-2.91-36.32,11.92-48.96,24.56c-6.76,6.76-6.75,17.75,0,24.51
			c6.76,6.76,17.75,6.76,24.5,0C300.34,337.55,315.18,305.94,312.16,301.12z"/>
	</g>
	<g>
		<path class="st1" d="M209.93,301.12c-4.7-2.91-36.32,11.92-48.96,24.56c-6.76,6.76-6.75,17.75,0,24.51
			c6.76,6.76,17.75,6.76,24.5,0C198.11,337.55,212.96,305.94,209.93,301.12z"/>
	</g>
</g>
</svg>
